<?xml version="1.0" encoding="utf-8"?>
<svg version="1.1" xmlns:xlink="http://www.w3.org/1999/xlink" width="20px" height="20px" preserveAspectRatio="xMinYMid meet" viewBox="492 551  20 18" xmlns="http://www.w3.org/2000/svg">
  <defs>
    <mask fill="white" id="clip57">
      <path d="M 544 547  L 616 547  L 616 572  L 544 572  Z M 490 547  L 671 547  L 671 572  L 490 572  Z " fill-rule="evenodd" />
    </mask>
  </defs>
  <path d="M 544 560  L 502 560  M 616 560  L 659 560  " stroke-width="2" stroke="#0099cc" fill="none" />
  <path d="M 507.107106781187 564.292893218813  L 502.814213562373 560  L 507.107106781187 555.707106781187  L 505.692893218813 554.292893218813  L 500.692893218813 559.292893218813  L 499.985786437627 560  L 500.692893218813 560.707106781187  L 505.692893218813 565.707106781187  L 507.107106781187 564.292893218813  Z M 653.892893218813 555.707106781187  L 658.185786437627 560  L 653.892893218813 564.292893218813  L 655.307106781187 565.707106781187  L 660.307106781187 560.707106781187  L 661.014213562373 560  L 660.307106781187 559.292893218813  L 655.307106781187 554.292893218813  L 653.892893218813 555.707106781187  Z " fill-rule="nonzero" fill="#0099cc" stroke="none" mask="url(#clip57)" />
</svg>